<svg width="23" height="23" viewBox="0 0 23 23" fill="none" xmlns="http://www.w3.org/2000/svg">
<path fill-rule="evenodd" clip-rule="evenodd" d="M11.5022 0C5.15344 0 0.00575066 5.14769 0.00575066 11.4978C0.00575066 16.5772 3.29906 20.8869 7.86887 22.4078C8.44387 22.5127 8.625 22.172 8.625 21.8672C8.625 21.5941 8.63075 20.8308 8.625 19.8713C5.42728 20.5663 4.76459 18.3569 4.76459 18.3569C4.24206 17.0286 3.48881 16.675 3.48881 16.675C2.44519 15.962 3.56716 15.9757 3.56716 15.9757C4.72075 16.0569 5.32881 17.1609 5.32881 17.1609C6.35447 18.9168 8.01909 18.4093 8.67387 18.1161C8.77881 17.3729 9.07637 16.8662 9.40484 16.5787C6.85184 16.2883 4.16803 15.3022 4.16803 10.8962C4.16803 9.64059 4.61581 8.61494 5.35109 7.81138C5.2325 7.521 4.83719 6.35159 5.46394 4.76819C5.46394 4.76819 6.42922 4.45912 8.625 5.94766C9.54212 5.6925 10.5261 5.56528 11.5036 5.56097C12.4804 5.56528 13.4636 5.6925 14.3822 5.94766C16.578 4.45984 17.5418 4.76819 17.5418 4.76819C18.1686 6.35159 17.774 7.521 17.6561 7.81138C18.3914 8.61494 18.8377 9.64059 18.8377 10.8962C18.8377 15.3137 16.1496 16.2854 13.588 16.5693C14.0005 16.9251 14.375 17.6151 14.375 18.6875C14.375 20.125 14.375 21.4921 14.375 21.8701C14.375 22.1777 14.5604 22.5177 15.1441 22.4063C19.7096 20.8833 23 16.5758 23 11.4978C23 5.14769 17.8523 0 11.5022 0Z" fill="#BDBDBD"/>
</svg>
