<svg width="68" height="42" viewBox="0 0 68 42" fill="none" xmlns="http://www.w3.org/2000/svg">
<path d="M25.0876 4.7121H42.9609V36.793H25.0876V4.7121Z" fill="#B27BFF"/>
<path d="M26.2222 20.7526C26.2222 14.2345 29.2861 8.45305 33.9954 4.71208C30.5345 1.99149 26.1656 0.347824 21.3994 0.347824C10.1076 0.347824 0.972412 9.47318 0.972412 20.7526C0.972412 32.0318 10.1076 41.1575 21.3991 41.1575C26.1653 41.1575 30.5343 39.5138 33.9954 36.7929C29.2861 33.1088 26.2222 27.2707 26.2222 20.7526Z" fill="#9E59FF"/>
<path d="M67.0751 20.7526C67.0751 32.0318 57.94 41.1575 46.6484 41.1575C41.8822 41.1575 37.5132 39.5138 34.0521 36.7929C38.8183 33.0522 41.8256 27.2707 41.8256 20.7526C41.8256 14.2345 38.7614 8.45305 34.0521 4.71208C37.513 1.99149 41.8822 0.347824 46.6484 0.347824C57.94 0.347824 67.0754 9.52998 67.0754 20.7526H67.0751Z" fill="#9E59FF"/>
</svg>
