<svg width="121" height="32" viewBox="0 0 121 32" fill="none" xmlns="http://www.w3.org/2000/svg">
<path d="M54.26 13.6C54.26 14.4533 54.06 15.2333 53.66 15.94C53.2733 16.6333 52.68 17.1933 51.88 17.62C51.0933 18.0333 50.1267 18.24 48.98 18.24H47.04V23H43.12V8.9H48.98C50.1133 8.9 51.0733 9.1 51.86 9.5C52.66 9.9 53.26 10.4533 53.66 11.16C54.06 11.8667 54.26 12.68 54.26 13.6ZM48.6 15.12C49.7067 15.12 50.26 14.6133 50.26 13.6C50.26 12.5733 49.7067 12.06 48.6 12.06H47.04V15.12H48.6ZM55.1948 17.38C55.1948 16.22 55.4015 15.2067 55.8148 14.34C56.2415 13.4733 56.8148 12.8067 57.5348 12.34C58.2682 11.8733 59.0815 11.64 59.9748 11.64C60.7482 11.64 61.4148 11.7933 61.9748 12.1C62.5348 12.4067 62.9682 12.82 63.2748 13.34V11.78H67.1948V23H63.2748V21.44C62.9682 21.96 62.5282 22.3733 61.9548 22.68C61.3948 22.9867 60.7348 23.14 59.9748 23.14C59.0815 23.14 58.2682 22.9067 57.5348 22.44C56.8148 21.9733 56.2415 21.3067 55.8148 20.44C55.4015 19.56 55.1948 18.54 55.1948 17.38ZM63.2748 17.38C63.2748 16.66 63.0748 16.0933 62.6748 15.68C62.2882 15.2667 61.8082 15.06 61.2348 15.06C60.6482 15.06 60.1615 15.2667 59.7748 15.68C59.3882 16.08 59.1948 16.6467 59.1948 17.38C59.1948 18.1 59.3882 18.6733 59.7748 19.1C60.1615 19.5133 60.6482 19.72 61.2348 19.72C61.8082 19.72 62.2882 19.5133 62.6748 19.1C63.0748 18.6867 63.2748 18.1133 63.2748 17.38ZM81.5086 11.78L74.3886 28.34H70.1286L72.8086 22.52L68.2086 11.78H72.5686L74.9286 18.14L77.2086 11.78H81.5086ZM84.2541 23.16C83.6541 23.16 83.1607 22.9867 82.7741 22.64C82.4007 22.28 82.2141 21.84 82.2141 21.32C82.2141 20.7867 82.4007 20.34 82.7741 19.98C83.1607 19.62 83.6541 19.44 84.2541 19.44C84.8407 19.44 85.3207 19.62 85.6941 19.98C86.0807 20.34 86.2741 20.7867 86.2741 21.32C86.2741 21.84 86.0807 22.28 85.6941 22.64C85.3207 22.9867 84.8407 23.16 84.2541 23.16ZM101.779 11.84C102.632 11.84 103.392 12.02 104.059 12.38C104.725 12.7267 105.252 13.2533 105.639 13.96C106.025 14.6667 106.219 15.5267 106.219 16.54V23H104.419V16.8C104.419 15.7067 104.145 14.8733 103.599 14.3C103.065 13.7133 102.339 13.42 101.419 13.42C100.472 13.42 99.7186 13.7267 99.1586 14.34C98.5986 14.94 98.3186 15.8133 98.3186 16.96V23H96.5186V16.8C96.5186 15.7067 96.2453 14.8733 95.6986 14.3C95.1653 13.7133 94.4386 13.42 93.5186 13.42C92.5719 13.42 91.8186 13.7267 91.2586 14.34C90.6986 14.94 90.4186 15.8133 90.4186 16.96V23H88.5986V12.04H90.4186V13.62C90.7786 13.0467 91.2586 12.6067 91.8586 12.3C92.4719 11.9933 93.1453 11.84 93.8786 11.84C94.7986 11.84 95.6119 12.0467 96.3186 12.46C97.0253 12.8733 97.5519 13.48 97.8986 14.28C98.2053 13.5067 98.7119 12.9067 99.4186 12.48C100.125 12.0533 100.912 11.84 101.779 11.84ZM119.204 17.1C119.204 17.4467 119.184 17.8133 119.144 18.2H110.384C110.451 19.28 110.817 20.1267 111.484 20.74C112.164 21.34 112.984 21.64 113.944 21.64C114.731 21.64 115.384 21.46 115.904 21.1C116.437 20.7267 116.811 20.2333 117.024 19.62H118.984C118.691 20.6733 118.104 21.5333 117.224 22.2C116.344 22.8533 115.251 23.18 113.944 23.18C112.904 23.18 111.971 22.9467 111.144 22.48C110.331 22.0133 109.691 21.3533 109.224 20.5C108.757 19.6333 108.524 18.6333 108.524 17.5C108.524 16.3667 108.751 15.3733 109.204 14.52C109.657 13.6667 110.291 13.0133 111.104 12.56C111.931 12.0933 112.877 11.86 113.944 11.86C114.984 11.86 115.904 12.0867 116.704 12.54C117.504 12.9933 118.117 13.62 118.544 14.42C118.984 15.2067 119.204 16.1 119.204 17.1ZM117.324 16.72C117.324 16.0267 117.171 15.4333 116.864 14.94C116.557 14.4333 116.137 14.0533 115.604 13.8C115.084 13.5333 114.504 13.4 113.864 13.4C112.944 13.4 112.157 13.6933 111.504 14.28C110.864 14.8667 110.497 15.68 110.404 16.72H117.324Z" fill="#333333"/>
<path d="M32 16C32 19.8983 30.5768 23.6624 27.9977 26.5856C25.4186 29.5087 21.8611 31.3898 17.9932 31.8754C14.1253 32.361 10.2131 31.4178 6.99145 29.2229C3.76979 27.0281 1.46026 23.7326 0.496586 19.9553C-0.467084 16.178 -0.0185873 12.1788 1.75785 8.70884C3.53428 5.23885 6.51643 2.53678 10.1442 1.11007C13.7721 -0.316641 17.7959 -0.369824 21.4602 0.960507C25.1244 2.29084 28.177 4.91315 30.0445 8.33498L18.747 14.5008C18.3817 13.8315 17.7846 13.3186 17.068 13.0584C16.3513 12.7982 15.5642 12.8086 14.8547 13.0877C14.1451 13.3667 13.5618 13.8952 13.2144 14.5739C12.8669 15.2526 12.7792 16.0348 12.9677 16.7736C13.1562 17.5124 13.6079 18.157 14.238 18.5863C14.8681 19.0156 15.6333 19.2 16.3898 19.1051C17.1464 19.0101 17.8422 18.6422 18.3466 18.0704C18.8511 17.4987 19.1294 16.7625 19.1294 16H32Z" fill="#BB6BD9"/>
</svg>
